# xmcd
#
# Track frame offsets:
#	150
#	28001
#	42347
#	56969
#	93370
#	119945
#	151944
#	163800
#	189034
#	216697
#	235374
#	248909
#	266291
#	285549
#	319527
#
# Disc length: 4611 seconds
#
# Revision: 1
# Processed by: cddbd v1.5.2PL0 Copyright (c) Steve Scherf et al.
# Submitted via: EZCDAudioConverter 1.3.4.1
#
DISCID=db12010f
DTITLE=Preservation Hall Jazz Band - 50th Anniversary Collection 2/4
DYEAR=2012
DGENRE=
TTITLE0=His Eye Is On The Sparrow
TTITLE1=Shake It And Break It
TTITLE2=Nellie Grey
TTITLE3=When The Saints Go Marchin' In
TTITLE4=Little Liza Jane
TTITLE5=(True) You Don't Love Me
TTITLE6=In The Sweet Bye And Bye
TTITLE7=I'll Fly Away
TTITLE8=That Bucket's Got A Hole In It
TTITLE9=Love Song Of The Nile
TTITLE10=Blue Yodel #9
TTITLE11=Shine
TTITLE12=Burgundy Street Blues
TTITLE13=I Want A Little Girl
TTITLE14=Chimes Blues
EXTD=
EXTT0=
EXTT1=
EXTT2=
EXTT3=
EXTT4=
EXTT5=
EXTT6=
EXTT7=
EXTT8=
EXTT9=
EXTT10=
EXTT11=
EXTT12=
EXTT13=
EXTT14=
PLAYORDER=
